<svg width="128" height="27" viewBox="0 0 128 27" fill="none" xmlns="http://www.w3.org/2000/svg">
<path fillRule="evenodd" clipRule="evenodd" d="M11.7354 5.32715H5.45085C4.09127 5.32715 2.52728 5.54657 1.4779 6.46985C0.675598 7.17571 0.347385 8.09069 0.347385 9.13521C0.347385 10.3285 0.778908 11.3477 1.608 12.2213C1.71714 12.3364 1.84668 12.4472 1.96711 12.5509C2.18818 12.7415 2.41469 12.927 2.64182 13.1106C3.38955 13.7151 4.15284 14.3044 4.91674 14.8893C5.23006 15.1292 5.54316 15.3701 5.85198 15.6154C5.99913 15.7323 6.16919 15.8614 6.30306 15.9922C6.63589 16.3173 6.87774 16.715 6.87774 17.1863C6.87774 18.1266 6.00341 18.3537 5.19616 18.3537H0V21.6728H6.23815C7.33377 21.6728 8.51285 21.5526 9.53523 21.146C11.1347 20.51 11.9206 19.3711 11.9206 17.6838C11.9206 16.4547 11.4725 15.4045 10.6143 14.5079C10.3161 14.1963 9.92296 13.8958 9.57918 13.6332C8.95449 13.1561 8.30785 12.7006 7.66092 12.2527C7.30431 12.0058 6.94843 11.7563 6.59999 11.4985C6.40492 11.3542 6.19325 11.1989 6.01553 11.0345C5.65647 10.7023 5.39028 10.2872 5.39028 9.79104C5.39028 8.8734 6.23437 8.64633 7.02562 8.64633H11.7354V5.3272V5.32715ZM14.4502 5.32715V21.6728H18.891V5.32715H14.4502ZM32.9148 18.8911C33.3935 16.3579 34.3326 13.7726 36.1817 11.8798L36.5656 11.4869V21.6728H41.0064V5.3272H36.4289C34.7258 6.85507 32.3927 10.2973 31.8346 12.4453L31.7921 12.6093H31.3605L31.3128 12.4543C30.6121 10.1734 28.5103 6.95862 26.6927 5.3272H22.1154V21.6728H26.5562V11.5048L26.9364 11.8762C28.816 13.7118 29.7352 16.3839 30.2071 18.8911H32.9148ZM44.2307 5.32715V21.6728H48.6715V17.2722L48.9462 17.3366C49.6223 17.4951 50.3071 17.6376 50.9947 17.7402C51.4982 17.8154 52.02 17.8735 52.53 17.8735C54.3459 17.8735 56.0497 17.42 57.4041 16.2009C58.7453 14.9937 59.2544 13.4007 59.2544 11.6455C59.2544 9.78555 58.6996 8.11267 57.2047 6.90555C55.7335 5.71764 53.8679 5.32715 51.9973 5.32715H44.2307H44.2307ZM48.6715 13.8847V8.64627H51.0941C53.167 8.64627 54.6747 9.4342 54.6747 11.6229C54.6747 13.5166 53.4545 14.5542 51.5573 14.5542C50.6022 14.5542 49.7205 14.2141 48.826 13.9333L48.6715 13.8847V13.8847ZM61.7377 5.32715V21.6728H72.8478V18.3536H66.1785V5.32715H61.7377ZM84.7506 11.3654H78.7992V8.64627H85.098V5.32715H74.3585V21.6728H85.5381V18.3536H78.7992V14.6847H84.7506V11.3654Z" fill="#FEFEFE"/>
<path d="M105.287 19.0949C103.489 18.7412 99.8376 20.0836 97.6319 20.1138C96.0565 20.1138 95.2809 18.6808 95.7786 17.2848C96.6903 17.4922 97.6566 17.6037 98.6574 17.6037C103.185 17.6037 108.759 14.9855 108.748 9.99113C108.742 7.16794 106.766 4.72499 103.768 3.41079C104.213 2.47258 106.13 1.84308 107.043 1.93008C104.431 -0.834436 99.831 -0.596073 97.5334 2.43242C92.5606 2.88028 88.7037 6.09335 88.7037 9.99113C88.7037 12.4109 90.0338 14.2338 91.872 15.5109C89.8931 16.4993 88.5381 18.5099 88.5381 20.8299C88.5381 24.1274 91.2754 26.8007 94.652 26.8007C96.738 26.8007 99.3653 26.0714 101.368 25.4952C102.072 25.2933 103.492 25.2375 103.492 26.2508C103.492 26.4677 103.413 26.6453 103.283 26.7884C105.898 27.6536 108.667 25.7605 108.667 23.0175C108.667 21.0506 107.206 19.417 105.287 19.0949L105.287 19.0949ZM95.3561 7.81611C95.5844 7.81611 95.8046 7.84971 96.0118 7.91201C95.6252 8.08254 95.3561 8.46244 95.3561 8.90362C95.3561 9.50425 95.8547 9.99113 96.4697 9.99113C96.9215 9.99113 97.3105 9.72834 97.4851 9.35077C97.5489 9.55326 97.5833 9.76828 97.5833 9.99113C97.5833 11.1923 96.5862 12.1661 95.3561 12.1661C94.1261 12.1661 93.1291 11.1923 93.1291 9.99113C93.1291 8.78992 94.1261 7.81611 95.3561 7.81611ZM102.05 7.81611C102.278 7.81611 102.498 7.84971 102.705 7.91201C102.319 8.08254 102.05 8.46244 102.05 8.90362C102.05 9.50425 102.548 9.99113 103.163 9.99113C103.615 9.99113 104.004 9.72834 104.179 9.35077C104.242 9.55326 104.277 9.76828 104.277 9.99113C104.277 11.1923 103.28 12.1661 102.05 12.1661C100.82 12.1661 99.8227 11.1923 99.8227 9.99113C99.8227 8.78992 100.82 7.81611 102.05 7.81611Z" fill="#FF6A00"/>
<path fillRule="evenodd" clipRule="evenodd" d="M111.748 13.5C111.748 8.09445 115.238 3.7124 119.543 3.7124C123.848 3.7124 127.338 8.09445 127.338 13.5C127.338 18.9055 123.848 23.2875 119.543 23.2875C115.238 23.2875 111.748 18.9055 111.748 13.5ZM116.202 13.5C116.202 11.6981 117.698 10.2374 119.543 10.2374C121.388 10.2374 122.884 11.6981 122.884 13.5C122.884 15.3019 121.388 16.7625 119.543 16.7625C117.698 16.7625 116.202 15.3018 116.202 13.5Z" fill="#FF6A00"/>
</svg>
