<svg width="12" height="8" viewBox="0 0 12 8" fill="none" xmlns="http://www.w3.org/2000/svg">
<path d="M0.386365 1.56396C0.360184 1.48355 0.349969 1.39856 0.356325 1.31403C0.362681 1.22949 0.385479 1.14713 0.423367 1.07182C0.461255 0.996509 0.513461 0.929791 0.576891 0.875618C0.640321 0.821446 0.713683 0.780921 0.792627 0.756448C0.871571 0.731975 0.95449 0.724051 1.03647 0.733147C1.11844 0.742243 1.19781 0.768172 1.26986 0.809399C1.34191 0.850625 1.40518 0.906309 1.45591 0.973148C1.50665 1.03999 1.54381 1.11662 1.56521 1.19851C2.84998 5.62315 8.94498 5.62379 10.231 1.20104C10.254 1.12128 10.2921 1.04696 10.3431 0.982343C10.3941 0.917722 10.457 0.86406 10.5281 0.82442C10.5993 0.78478 10.6773 0.759939 10.7578 0.751315C10.8383 0.742691 10.9196 0.750453 10.9972 0.774157C11.0747 0.797862 11.147 0.837045 11.2098 0.88947C11.2727 0.941894 11.3249 1.00653 11.3634 1.0797C11.402 1.15286 11.4261 1.23311 11.4345 1.31588C11.4429 1.39864 11.4353 1.48229 11.4123 1.56206C11.1884 2.35457 10.8083 3.09123 10.2957 3.72624L11.0809 4.53441C11.1931 4.65386 11.2552 4.81385 11.2538 4.97992C11.2524 5.14598 11.1876 5.30483 11.0734 5.42226C10.9592 5.53969 10.8048 5.6063 10.6433 5.60775C10.4818 5.60919 10.3262 5.54535 10.21 5.42998L9.4026 4.59965C8.96689 4.93767 8.48551 5.20844 7.9737 5.40338L8.19357 6.24891C8.21703 6.33001 8.22445 6.41513 8.21538 6.49923C8.20632 6.58332 8.18096 6.6647 8.14081 6.73856C8.10066 6.81241 8.04652 6.87724 7.98159 6.92922C7.91667 6.9812 7.84228 7.01927 7.7628 7.0412C7.68333 7.06312 7.6004 7.06845 7.51889 7.05686C7.43738 7.04527 7.35896 7.01701 7.28825 6.97374C7.21755 6.93047 7.15599 6.87307 7.10721 6.80492C7.05843 6.73678 7.02343 6.65928 7.00426 6.57699L6.78007 5.71752C6.19681 5.80619 5.60062 5.80619 5.01735 5.71752L4.79316 6.57699C4.774 6.65928 4.73899 6.73678 4.69022 6.80492C4.64144 6.87307 4.57988 6.93047 4.50917 6.97374C4.43847 7.01701 4.36004 7.04527 4.27854 7.05686C4.19703 7.06845 4.11409 7.06312 4.03462 7.0412C3.95515 7.01927 3.88076 6.9812 3.81583 6.92922C3.75091 6.87724 3.69677 6.81241 3.65662 6.73856C3.61646 6.6647 3.5911 6.58332 3.58204 6.49923C3.57298 6.41513 3.5804 6.33001 3.60385 6.24891L3.82373 5.40338C3.31188 5.20825 2.8305 4.93726 2.39483 4.59901L1.58799 5.42998C1.47251 5.54891 1.31581 5.61579 1.15237 5.61591C0.988931 5.61602 0.83214 5.54937 0.71649 5.43061C0.600839 5.31185 0.535802 5.15071 0.535687 4.98264C0.535571 4.81457 0.600387 4.65334 0.715874 4.53441L1.50115 3.72688C1.01828 3.13405 0.632727 2.41329 0.385133 1.56459L0.386365 1.56396Z" fill="#6C757D"/>
</svg>
