<svg width="16" height="16" viewBox="0 0 16 16" fill="none" xmlns="http://www.w3.org/2000/svg">
<path d="M12.8259 8.57115C12.8259 8.40697 12.8873 8.24951 12.9967 8.13342C13.106 8.01732 13.2543 7.9521 13.4089 7.9521C13.5635 7.9521 13.7118 8.01732 13.8211 8.13342C13.9305 8.24951 13.9919 8.40697 13.9919 8.57115V15.3807C13.9919 15.5449 13.9305 15.7023 13.8211 15.8184C13.7118 15.9345 13.5635 15.9997 13.4089 15.9997H0.582996C0.428376 15.9997 0.280089 15.9345 0.170756 15.8184C0.0614227 15.7023 0 15.5449 0 15.3807V1.76163C0 1.59744 0.0614227 1.43999 0.170756 1.32389C0.280089 1.2078 0.428376 1.14258 0.582996 1.14258H6.99595C7.15057 1.14258 7.29886 1.2078 7.40819 1.32389C7.51752 1.43999 7.57895 1.59744 7.57895 1.76163C7.57895 1.92581 7.51752 2.08326 7.40819 2.19936C7.29886 2.31545 7.15057 2.38067 6.99595 2.38067H1.16599V14.7616H12.8259V8.57115Z" fill="#6C757D"/>
<path d="M6.07002 9.60483L7.13507 9.4438L13.6777 2.52899C13.7393 2.46605 13.7885 2.39075 13.8223 2.30751C13.8561 2.22426 13.874 2.13472 13.8747 2.04412C13.8754 1.95352 13.8591 1.86367 13.8267 1.77981C13.7942 1.69596 13.7463 1.61977 13.6857 1.55571C13.6251 1.49164 13.553 1.44097 13.4737 1.40667C13.3943 1.37236 13.3093 1.35509 13.2236 1.35588C13.1379 1.35667 13.0532 1.37549 12.9745 1.41125C12.8957 1.44701 12.8245 1.49899 12.765 1.56416L6.22106 8.47898L6.06873 9.60483H6.07002ZM14.5904 0.597973C14.7703 0.788073 14.9131 1.01379 15.0105 1.26223C15.1079 1.51067 15.158 1.77697 15.158 2.04589C15.158 2.31482 15.1079 2.58111 15.0105 2.82956C14.9131 3.078 14.7703 3.30372 14.5904 3.49382L7.89674 10.5697C7.79803 10.6744 7.66982 10.7424 7.53139 10.7634L5.4013 11.0855C5.30203 11.1006 5.20081 11.091 5.10565 11.0575C5.0105 11.024 4.92403 10.9675 4.85312 10.8926C4.7822 10.8176 4.72879 10.7262 4.69711 10.6256C4.66543 10.525 4.65636 10.418 4.67062 10.3131L4.97529 8.06138C4.99484 7.91523 5.05872 7.77971 5.15731 7.67518L11.8522 0.599338C12.2154 0.215582 12.7078 0 13.2213 0C13.7348 0 14.2272 0.215582 14.5904 0.599338V0.597973Z" fill="#6C757D"/>
</svg>
