<svg width="13" height="15" viewBox="0 0 13 15" fill="none" xmlns="http://www.w3.org/2000/svg">
<path d="M8.11265 14.5751C7.96803 14.575 7.82621 14.5353 7.70256 14.4603L5.06315 12.877C4.76617 12.6979 4.52035 12.4453 4.34938 12.1435C4.17841 11.8418 4.08805 11.5011 4.08702 11.1543V7.57203C4.08753 7.3192 4.00891 7.07255 3.86219 6.86666L0.176979 1.68757C0.090927 1.56801 0.0395765 1.427 0.0285931 1.2801C0.0176098 1.13321 0.0474206 0.986128 0.114736 0.8551C0.182052 0.724072 0.284256 0.614187 0.41007 0.537569C0.535885 0.46095 0.680421 0.420578 0.827729 0.420905H12.1723C12.3197 0.420291 12.4645 0.460488 12.5904 0.537045C12.7164 0.613602 12.8188 0.723533 12.8862 0.854665C12.9535 0.985798 12.9833 1.13302 12.9721 1.28002C12.961 1.42703 12.9094 1.56808 12.8231 1.68757L9.13785 6.86666C8.99085 7.07246 8.91195 7.31912 8.91223 7.57203V13.7739C8.91202 13.9861 8.82776 14.1895 8.6779 14.3397C8.52804 14.4898 8.32479 14.5745 8.11265 14.5751ZM0.827729 1.21653L4.5066 6.40749C4.75042 6.74668 4.88066 7.15431 4.87869 7.57203V11.1535C4.87898 11.3637 4.93358 11.5702 5.0372 11.753C5.14081 11.9358 5.28992 12.0887 5.47006 12.1969L8.10948 13.7803L8.12056 7.57124C8.11882 7.15343 8.24934 6.74579 8.49344 6.4067L12.1779 1.22761L0.827729 1.21653Z" fill="#212529"/>
<path d="M8.11265 14.5751C7.96803 14.575 7.82621 14.5353 7.70256 14.4603L5.06315 12.877C4.76617 12.6979 4.52035 12.4453 4.34938 12.1435C4.17841 11.8418 4.08805 11.5011 4.08702 11.1543V7.57203C4.08753 7.3192 4.00891 7.07255 3.86219 6.86666L0.176979 1.68757C0.090927 1.56801 0.0395765 1.427 0.0285931 1.2801C0.0176098 1.13321 0.0474206 0.986128 0.114736 0.8551C0.182052 0.724072 0.284256 0.614187 0.41007 0.537569C0.535885 0.46095 0.680421 0.420578 0.827729 0.420905H12.1723C12.3197 0.420291 12.4645 0.460488 12.5904 0.537045C12.7164 0.613602 12.8188 0.723533 12.8862 0.854665C12.9535 0.985798 12.9833 1.13302 12.9721 1.28002C12.961 1.42703 12.9094 1.56808 12.8231 1.68757L9.13785 6.86666C8.99085 7.07246 8.91195 7.31912 8.91223 7.57203V13.7739C8.91202 13.9861 8.82776 14.1895 8.6779 14.3397C8.52804 14.4898 8.32479 14.5745 8.11265 14.5751ZM0.827729 1.21653L4.5066 6.40749C4.75042 6.74668 4.88066 7.15431 4.87869 7.57203V11.1535C4.87898 11.3637 4.93358 11.5702 5.0372 11.753C5.14081 11.9358 5.28992 12.0887 5.47006 12.1969L8.10948 13.7803L8.12056 7.57124C8.11882 7.15343 8.24934 6.74579 8.49344 6.4067L12.1779 1.22761L0.827729 1.21653Z" fill="black" fill-opacity="0.2"/>
<path d="M8.11265 14.5751C7.96803 14.575 7.82621 14.5353 7.70256 14.4603L5.06315 12.877C4.76617 12.6979 4.52035 12.4453 4.34938 12.1435C4.17841 11.8418 4.08805 11.5011 4.08702 11.1543V7.57203C4.08753 7.3192 4.00891 7.07255 3.86219 6.86666L0.176979 1.68757C0.090927 1.56801 0.0395765 1.427 0.0285931 1.2801C0.0176098 1.13321 0.0474206 0.986128 0.114736 0.8551C0.182052 0.724072 0.284256 0.614187 0.41007 0.537569C0.535885 0.46095 0.680421 0.420578 0.827729 0.420905H12.1723C12.3197 0.420291 12.4645 0.460488 12.5904 0.537045C12.7164 0.613602 12.8188 0.723533 12.8862 0.854665C12.9535 0.985798 12.9833 1.13302 12.9721 1.28002C12.961 1.42703 12.9094 1.56808 12.8231 1.68757L9.13785 6.86666C8.99085 7.07246 8.91195 7.31912 8.91223 7.57203V13.7739C8.91202 13.9861 8.82776 14.1895 8.6779 14.3397C8.52804 14.4898 8.32479 14.5745 8.11265 14.5751ZM0.827729 1.21653L4.5066 6.40749C4.75042 6.74668 4.88066 7.15431 4.87869 7.57203V11.1535C4.87898 11.3637 4.93358 11.5702 5.0372 11.753C5.14081 11.9358 5.28992 12.0887 5.47006 12.1969L8.10948 13.7803L8.12056 7.57124C8.11882 7.15343 8.24934 6.74579 8.49344 6.4067L12.1779 1.22761L0.827729 1.21653Z" fill="black" fill-opacity="0.2"/>
<path d="M8.11265 14.5751C7.96803 14.575 7.82621 14.5353 7.70256 14.4603L5.06315 12.877C4.76617 12.6979 4.52035 12.4453 4.34938 12.1435C4.17841 11.8418 4.08805 11.5011 4.08702 11.1543V7.57203C4.08753 7.3192 4.00891 7.07255 3.86219 6.86666L0.176979 1.68757C0.090927 1.56801 0.0395765 1.427 0.0285931 1.2801C0.0176098 1.13321 0.0474206 0.986128 0.114736 0.8551C0.182052 0.724072 0.284256 0.614187 0.41007 0.537569C0.535885 0.46095 0.680421 0.420578 0.827729 0.420905H12.1723C12.3197 0.420291 12.4645 0.460488 12.5904 0.537045C12.7164 0.613602 12.8188 0.723533 12.8862 0.854665C12.9535 0.985798 12.9833 1.13302 12.9721 1.28002C12.961 1.42703 12.9094 1.56808 12.8231 1.68757L9.13785 6.86666C8.99085 7.07246 8.91195 7.31912 8.91223 7.57203V13.7739C8.91202 13.9861 8.82776 14.1895 8.6779 14.3397C8.52804 14.4898 8.32479 14.5745 8.11265 14.5751ZM0.827729 1.21653L4.5066 6.40749C4.75042 6.74668 4.88066 7.15431 4.87869 7.57203V11.1535C4.87898 11.3637 4.93358 11.5702 5.0372 11.753C5.14081 11.9358 5.28992 12.0887 5.47006 12.1969L8.10948 13.7803L8.12056 7.57124C8.11882 7.15343 8.24934 6.74579 8.49344 6.4067L12.1779 1.22761L0.827729 1.21653Z" fill="black" fill-opacity="0.2"/>
<path d="M8.11265 14.5751C7.96803 14.575 7.82621 14.5353 7.70256 14.4603L5.06315 12.877C4.76617 12.6979 4.52035 12.4453 4.34938 12.1435C4.17841 11.8418 4.08805 11.5011 4.08702 11.1543V7.57203C4.08753 7.3192 4.00891 7.07255 3.86219 6.86666L0.176979 1.68757C0.090927 1.56801 0.0395765 1.427 0.0285931 1.2801C0.0176098 1.13321 0.0474206 0.986128 0.114736 0.8551C0.182052 0.724072 0.284256 0.614187 0.41007 0.537569C0.535885 0.46095 0.680421 0.420578 0.827729 0.420905H12.1723C12.3197 0.420291 12.4645 0.460488 12.5904 0.537045C12.7164 0.613602 12.8188 0.723533 12.8862 0.854665C12.9535 0.985798 12.9833 1.13302 12.9721 1.28002C12.961 1.42703 12.9094 1.56808 12.8231 1.68757L9.13785 6.86666C8.99085 7.07246 8.91195 7.31912 8.91223 7.57203V13.7739C8.91202 13.9861 8.82776 14.1895 8.6779 14.3397C8.52804 14.4898 8.32479 14.5745 8.11265 14.5751ZM0.827729 1.21653L4.5066 6.40749C4.75042 6.74668 4.88066 7.15431 4.87869 7.57203V11.1535C4.87898 11.3637 4.93358 11.5702 5.0372 11.753C5.14081 11.9358 5.28992 12.0887 5.47006 12.1969L8.10948 13.7803L8.12056 7.57124C8.11882 7.15343 8.24934 6.74579 8.49344 6.4067L12.1779 1.22761L0.827729 1.21653Z" fill="black" fill-opacity="0.2"/>
<path d="M8.11265 14.5751C7.96803 14.575 7.82621 14.5353 7.70256 14.4603L5.06315 12.877C4.76617 12.6979 4.52035 12.4453 4.34938 12.1435C4.17841 11.8418 4.08805 11.5011 4.08702 11.1543V7.57203C4.08753 7.3192 4.00891 7.07255 3.86219 6.86666L0.176979 1.68757C0.090927 1.56801 0.0395765 1.427 0.0285931 1.2801C0.0176098 1.13321 0.0474206 0.986128 0.114736 0.8551C0.182052 0.724072 0.284256 0.614187 0.41007 0.537569C0.535885 0.46095 0.680421 0.420578 0.827729 0.420905H12.1723C12.3197 0.420291 12.4645 0.460488 12.5904 0.537045C12.7164 0.613602 12.8188 0.723533 12.8862 0.854665C12.9535 0.985798 12.9833 1.13302 12.9721 1.28002C12.961 1.42703 12.9094 1.56808 12.8231 1.68757L9.13785 6.86666C8.99085 7.07246 8.91195 7.31912 8.91223 7.57203V13.7739C8.91202 13.9861 8.82776 14.1895 8.6779 14.3397C8.52804 14.4898 8.32479 14.5745 8.11265 14.5751ZM0.827729 1.21653L4.5066 6.40749C4.75042 6.74668 4.88066 7.15431 4.87869 7.57203V11.1535C4.87898 11.3637 4.93358 11.5702 5.0372 11.753C5.14081 11.9358 5.28992 12.0887 5.47006 12.1969L8.10948 13.7803L8.12056 7.57124C8.11882 7.15343 8.24934 6.74579 8.49344 6.4067L12.1779 1.22761L0.827729 1.21653Z" fill="black" fill-opacity="0.2"/>
</svg>
