<svg width="12" height="12" viewBox="0 0 12 12" fill="none" xmlns="http://www.w3.org/2000/svg">
<path d="M8.7206 8.7206C9.13037 8.31083 9.45541 7.82437 9.67717 7.28899C9.89894 6.7536 10.0131 6.17978 10.0131 5.60029C10.0131 5.02079 9.89894 4.44697 9.67717 3.91159C9.45541 3.3762 9.13037 2.88974 8.7206 2.47998C8.31084 2.07021 7.82437 1.74517 7.28899 1.5234C6.7536 1.30164 6.17978 1.1875 5.60029 1.1875C5.02079 1.1875 4.44697 1.30164 3.91159 1.5234C3.3762 1.74517 2.88974 2.07021 2.47998 2.47998C1.65242 3.30753 1.1875 4.42994 1.1875 5.60029C1.1875 6.77063 1.65242 7.89304 2.47998 8.7206C3.30753 9.54816 4.42994 10.0131 5.60029 10.0131C6.77063 10.0131 7.89304 9.54816 8.7206 8.7206ZM8.7206 8.7206L11.5 11.5" stroke="white" stroke-width="0.7" stroke-linecap="round" stroke-linejoin="round"/>
</svg>
