<svg width="108" height="106" viewBox="0 0 108 106" fill="none" xmlns="http://www.w3.org/2000/svg">
<ellipse cx="54" cy="52.5326" rx="54" ry="52.5326" fill="url(#paint0_linear_1_2949)" fill-opacity="0.8"/>
<path d="M45.9023 78.887C45.9584 78.8482 49.1696 76.4724 49.2239 76.4294C49.5537 76.2021 49.8534 75.9019 50.1034 75.5285L81.4482 28.7306C82.1922 27.2694 80.5821 26.4567 80.6039 26.4753C79.8098 26.0782 78.6186 26.4753 78.6186 26.4753C78.5615 26.5124 78.6723 26.4305 78.6186 26.4753C78.5615 26.5124 76.0705 28.7306 76.0705 28.7306L75.5003 29.347L46.9819 59.0904L31.4273 50.2676C30.817 49.9213 29.5577 50.4464 29.5577 50.4464C27.0446 51.4603 27.0446 53.0502 27.0446 53.0502C26.9031 53.1425 27.1615 54.1053 27.0443 54.2427L45.9023 78.887Z" fill="#BEBEBE"/>
<path d="M27.3916 54.8126L43.4216 77.9C44.7384 79.7964 47.2703 79.7569 48.541 77.8199L80.2932 29.4194C80.8652 28.5476 80.7244 27.3137 79.9758 26.6382C79.2875 26.0173 78.3037 26.0701 77.6695 26.762L46.0896 61.2302L29.6221 51.6938C28.9125 51.2828 28.0504 51.4511 27.5007 52.1083C26.8784 52.8523 26.8319 54.0065 27.3916 54.8126Z" fill="#FFFBFB"/>
<defs>
<linearGradient id="paint0_linear_1_2949" x1="-1.31245e-05" y1="52.5328" x2="108" y2="52.5328" gradientUnits="userSpaceOnUse">
<stop stop-color="#0AFFA6"/>
<stop offset="1" stop-color="#008E95"/>
</linearGradient>
</defs>
</svg>
